<?xml version="1.0" encoding="UTF-8" standalone="no"?>
<!-- Generator: Adobe Illustrator 16.0.0, SVG Export Plug-In . SVG Version: 6.00 Build 0)  -->

<svg
   xmlns:dc="http://purl.org/dc/elements/1.1/"
   xmlns:cc="http://creativecommons.org/ns#"
   xmlns:rdf="http://www.w3.org/1999/02/22-rdf-syntax-ns#"
   xmlns:svg="http://www.w3.org/2000/svg"
   xmlns="http://www.w3.org/2000/svg"
   xmlns:sodipodi="http://sodipodi.sourceforge.net/DTD/sodipodi-0.dtd"
   xmlns:inkscape="http://www.inkscape.org/namespaces/inkscape"
   version="1.1"
   id="Capa_1"
   x="0px"
   y="0px"
   width="33.88px"
   height="33.88px"
   viewBox="0 0 33.88 33.88"
   style="enable-background:new 0 0 33.88 33.88;"
   xml:space="preserve"
   inkscape:version="0.91 r13725"
   sodipodi:docname="twitter_005577.svg"><metadata
     id="metadata5392"><rdf:RDF><cc:Work
         rdf:about=""><dc:format>image/svg+xml</dc:format><dc:type
           rdf:resource="http://purl.org/dc/dcmitype/StillImage" /><dc:title></dc:title></cc:Work></rdf:RDF></metadata><defs
     id="defs5390" /><sodipodi:namedview
     pagecolor="#ffffff"
     bordercolor="#666666"
     borderopacity="1"
     objecttolerance="10"
     gridtolerance="10"
     guidetolerance="10"
     inkscape:pageopacity="0"
     inkscape:pageshadow="2"
     inkscape:window-width="671"
     inkscape:window-height="480"
     id="namedview5388"
     showgrid="false"
     inkscape:zoom="6.9657613"
     inkscape:cx="16.940001"
     inkscape:cy="16.940001"
     inkscape:window-x="0"
     inkscape:window-y="0"
     inkscape:window-maximized="0"
     inkscape:current-layer="Capa_1" /><g
     id="g5354"
     style="fill:#005577;fill-opacity:1"><path
       d="M30.414,10.031c0.014,0.297,0.021,0.595,0.021,0.897c0,9.187-6.992,19.779-19.779,19.779c-3.928,0-7.58-1.149-10.657-3.123   c0.546,0.063,1.099,0.095,1.658,0.095c3.26,0,6.254-1.107,8.632-2.974c-3.039-0.058-5.607-2.065-6.491-4.828   c0.424,0.082,0.858,0.125,1.308,0.125c0.635,0,1.248-0.084,1.83-0.244c-3.177-0.639-5.576-3.448-5.576-6.815   c0-0.029,0-0.058,0-0.087c0.939,0.521,2.01,0.833,3.15,0.869C2.646,12.48,1.419,10.35,1.419,7.938c0-1.274,0.343-2.467,0.94-3.495   c3.427,4.206,8.552,6.973,14.327,7.263c-0.117-0.509-0.18-1.038-0.18-1.584c0-3.838,3.112-6.949,6.953-6.949   c1.998,0,3.805,0.844,5.07,2.192c1.582-0.311,3.072-0.89,4.416-1.686c-0.521,1.624-1.621,2.986-3.057,3.844   c1.406-0.166,2.746-0.54,3.991-1.092C32.949,7.826,31.771,9.05,30.414,10.031z"
       id="path5356"
       style="fill:#005577;fill-opacity:1" /></g><g
     id="g5358" /><g
     id="g5360" /><g
     id="g5362" /><g
     id="g5364" /><g
     id="g5366" /><g
     id="g5368" /><g
     id="g5370" /><g
     id="g5372" /><g
     id="g5374" /><g
     id="g5376" /><g
     id="g5378" /><g
     id="g5380" /><g
     id="g5382" /><g
     id="g5384" /><g
     id="g5386" /></svg>